<svg xmlns="http://www.w3.org/2000/svg" viewBox="0 0 875.45 913.72"><defs><style>.cls-1{fill:#dadbdb;}.cls-2{fill:none;stroke:#727171;stroke-linecap:round;stroke-width:8px;}.cls-2,.cls-5{stroke-miterlimit:10;}.cls-3,.cls-5{fill:#f7f8f8;}.cls-4{fill:#727171;}.cls-5{font-size:58.49px;stroke:#595757;font-family:UDDigiKyokashoNK-B, UD Digi Kyokasho NK-B;}</style></defs><g id="レイヤー_2" data-name="レイヤー 2"><g id="レイヤー_4" data-name="レイヤー 4"><rect class="cls-1" width="875.45" height="73.22"/><line class="cls-2" x1="366.1" y1="9.02" x2="366.1" y2="64.2"/><line class="cls-2" x1="488.13" y1="9.02" x2="488.13" y2="64.2"/><line class="cls-2" x1="610.16" y1="9.02" x2="610.16" y2="64.2"/><line class="cls-2" x1="732.19" y1="9.02" x2="732.19" y2="64.2"/><line class="cls-2" x1="854.22" y1="9.02" x2="854.22" y2="64.2"/><line class="cls-2" x1="854.22" y1="36.61" x2="366.1" y2="36.61"/><rect class="cls-1" y="119.91" width="875.45" height="73.22"/><line class="cls-2" x1="366.1" y1="128.93" x2="366.1" y2="184.11"/><line class="cls-2" x1="488.13" y1="128.93" x2="488.13" y2="184.11"/><line class="cls-2" x1="610.16" y1="128.93" x2="610.16" y2="184.11"/><line class="cls-2" x1="732.19" y1="128.93" x2="732.19" y2="184.11"/><line class="cls-2" x1="854.22" y1="128.93" x2="854.22" y2="184.11"/><line class="cls-2" x1="854.22" y1="156.52" x2="366.1" y2="156.52"/><rect class="cls-1" y="239.82" width="875.45" height="73.22"/><line class="cls-2" x1="366.1" y1="248.84" x2="366.1" y2="304.02"/><line class="cls-2" x1="488.13" y1="248.84" x2="488.13" y2="304.02"/><line class="cls-2" x1="610.16" y1="248.84" x2="610.16" y2="304.02"/><line class="cls-2" x1="732.19" y1="248.84" x2="732.19" y2="304.02"/><line class="cls-2" x1="854.22" y1="248.84" x2="854.22" y2="304.02"/><line class="cls-2" x1="854.22" y1="276.43" x2="366.1" y2="276.43"/><rect class="cls-1" y="359.73" width="875.45" height="73.22"/><line class="cls-2" x1="366.1" y1="368.75" x2="366.1" y2="423.93"/><line class="cls-2" x1="488.13" y1="368.75" x2="488.13" y2="423.93"/><line class="cls-2" x1="610.16" y1="368.75" x2="610.16" y2="423.93"/><line class="cls-2" x1="732.19" y1="368.75" x2="732.19" y2="423.93"/><line class="cls-2" x1="854.22" y1="368.75" x2="854.22" y2="423.93"/><line class="cls-2" x1="854.22" y1="396.34" x2="366.1" y2="396.34"/><rect class="cls-1" y="479.64" width="875.45" height="73.22"/><line class="cls-2" x1="366.1" y1="488.66" x2="366.1" y2="543.84"/><line class="cls-2" x1="488.13" y1="488.66" x2="488.13" y2="543.84"/><line class="cls-2" x1="610.16" y1="488.66" x2="610.16" y2="543.84"/><line class="cls-2" x1="732.19" y1="488.66" x2="732.19" y2="543.84"/><line class="cls-2" x1="854.22" y1="488.66" x2="854.22" y2="543.84"/><line class="cls-2" x1="854.22" y1="516.25" x2="366.1" y2="516.25"/><rect class="cls-1" y="599.55" width="875.45" height="73.22"/><line class="cls-2" x1="366.1" y1="608.57" x2="366.1" y2="663.75"/><line class="cls-2" x1="488.13" y1="608.57" x2="488.13" y2="663.75"/><line class="cls-2" x1="610.16" y1="608.57" x2="610.16" y2="663.75"/><line class="cls-2" x1="732.19" y1="608.57" x2="732.19" y2="663.75"/><line class="cls-2" x1="854.22" y1="608.57" x2="854.22" y2="663.75"/><line class="cls-2" x1="854.22" y1="636.16" x2="366.1" y2="636.16"/><rect class="cls-1" y="719.46" width="875.45" height="73.22"/><line class="cls-2" x1="366.1" y1="728.48" x2="366.1" y2="783.66"/><line class="cls-2" x1="488.13" y1="728.48" x2="488.13" y2="783.66"/><line class="cls-2" x1="610.16" y1="728.48" x2="610.16" y2="783.66"/><line class="cls-2" x1="732.19" y1="728.48" x2="732.19" y2="783.66"/><line class="cls-2" x1="854.22" y1="728.48" x2="854.22" y2="783.66"/><line class="cls-2" x1="854.22" y1="756.07" x2="366.1" y2="756.07"/><rect class="cls-1" y="839.37" width="875.45" height="73.22"/><line class="cls-2" x1="366.1" y1="848.39" x2="366.1" y2="903.57"/><line class="cls-2" x1="488.13" y1="848.39" x2="488.13" y2="903.57"/><line class="cls-2" x1="610.16" y1="848.39" x2="610.16" y2="903.57"/><line class="cls-2" x1="732.19" y1="848.39" x2="732.19" y2="903.57"/><line class="cls-2" x1="854.22" y1="848.39" x2="854.22" y2="903.57"/><line class="cls-2" x1="854.22" y1="875.98" x2="366.1" y2="875.98"/><circle class="cls-3" cx="854.22" cy="37.61" r="18.39"/><circle class="cls-4" cx="854.22" cy="37.61" r="15.1"/><circle class="cls-3" cx="854.22" cy="37.61" r="9.08"/><circle class="cls-3" cx="610.16" cy="875.98" r="18.39"/><circle class="cls-4" cx="610.16" cy="875.98" r="15.1"/><circle class="cls-3" cx="610.16" cy="875.98" r="9.08"/><circle class="cls-3" cx="488.15" cy="756.07" r="18.39"/><circle class="cls-4" cx="488.15" cy="756.07" r="15.1"/><circle class="cls-3" cx="488.15" cy="756.07" r="9.08"/><circle class="cls-3" cx="610.16" cy="636.16" r="18.39"/><circle class="cls-4" cx="610.16" cy="636.16" r="15.1"/><circle class="cls-3" cx="610.16" cy="636.16" r="9.08"/><circle class="cls-3" cx="366.1" cy="516.25" r="18.39"/><circle class="cls-4" cx="366.1" cy="516.25" r="15.1"/><circle class="cls-3" cx="366.1" cy="516.25" r="9.08"/><circle class="cls-3" cx="488.15" cy="396.34" r="18.39"/><circle class="cls-4" cx="488.15" cy="396.34" r="15.1"/><circle class="cls-3" cx="488.15" cy="396.34" r="9.08"/><circle class="cls-3" cx="610.16" cy="276.43" r="18.39"/><circle class="cls-4" cx="610.16" cy="276.43" r="15.1"/><circle class="cls-3" cx="610.16" cy="276.43" r="9.08"/><circle class="cls-3" cx="854.22" cy="156.52" r="18.39"/><circle class="cls-4" cx="854.22" cy="156.52" r="15.1"/><circle class="cls-3" cx="854.22" cy="156.52" r="9.08"/><text class="cls-5" transform="translate(7.75 59.6)">HTML </text><text class="cls-5" transform="translate(7.75 177.69)">CSS </text><text class="cls-5" transform="translate(7.75 657.54)">Sass </text><text class="cls-5" transform="translate(7.75 296.82)">Photoshop </text><text class="cls-5" transform="translate(7.75 420.33)">Illustrator </text><text class="cls-5" transform="translate(7.75 540.35)">Adobe XD </text><text class="cls-5" transform="translate(7.75 777.73)"><tspan xml:space="preserve">JavaScript  </tspan></text><text class="cls-5" transform="translate(7.75 899.39)">C++ </text></g></g></svg>