<svg xmlns="http://www.w3.org/2000/svg" width="539.633" height="539.626" viewBox="0 0 539.633 539.626">
  <defs>
    <style>
      .cls-1 {
        fill: #fffcfb;
      }
    </style>
  </defs>
  <g id="BackGroundLogo" transform="translate(-413.184 -971)">
    <path id="パス_10" data-name="パス 10" class="cls-1" d="M64.305,166.148,62.63,168.28l1.1-1.332-1.028,1.409,1.675-2.17c4.188-4.683,15.228-16.1,28.7-19.339,15.875-3.807,37.461,1.827,53.945-5.71,23.184-10.621,26.078-24.783,21.624-32.626-6.967-12.373-21.129-17.588-43.323-5.025A154.562,154.562,0,0,0,85.814,139L81.7,144.22,85.776,139A155.515,155.515,0,0,0,110.75,92.217c6.929-24.517-1.485-37.042-15.228-40.887-8.68-2.436-21.776,3.807-26.649,28.781-3.426,17.778,7.271,37.384,7.271,53.716C76.3,147.3,67.845,160.932,64.305,166.148Z" transform="translate(588.515 1113.565)"/>
    <path id="パス_11" data-name="パス 11" class="cls-1" d="M78.021,104.65l-.761.99.457-.457-.381.533.8-.99a56.545,56.545,0,0,1,5.292-5.177,33.806,33.806,0,0,1,15.228-5.216c8.794-.838,17.7-.685,25.735-8.566,5.825-5.71,5.787-15.494.723-19.492a15.228,15.228,0,0,0-19.606,3.274,15.228,15.228,0,0,0-1.447-19.8c-5.1-3.807-14.619-1.713-18.768,5.292-5.749,9.708-3.5,18.312-2.208,27.029a33.386,33.386,0,0,1-1.447,16.18,55.084,55.084,0,0,1-3.617,6.4Z" transform="translate(629.581 1105.244)"/>
    <path id="パス_12" data-name="パス 12" class="cls-1" d="M160.767,142.8c-10.2.685-24.974,0-34.263.876a50.671,50.671,0,0,0-24.555,8.68,84.9,84.9,0,0,0-12.22,11.421,87.941,87.941,0,0,0,8.147-14.619A50.138,50.138,0,0,0,100.5,123.27c-1.485-9.441-5.558-23.679-7.271-33.349-2.931-16.789,0-35.1-9.137-34-14.048,1.637-30.722,23.717-33.806,55.848-2.436,25.469,15.228,53.945,22.842,64.718,1.713,2.4-1.218,8.68-1.675,9.936v.228h0v-.266c1.1-.685,6.967-4.683,9.708-3.579,12.182,4.721,44.085,15.228,68.259,6.853,30.456-10.621,47.968-32.017,46.255-46.064C194.839,134.387,177.746,141.734,160.767,142.8Z" transform="translate(553.232 1127.701)"/>
    <path id="パス_13" data-name="パス 13" class="cls-1" d="M522.5,175.546a78.462,78.462,0,0,0-131.34-25.621h0a78.728,78.728,0,0,0-15.57,80.67,4.069,4.069,0,0,0,.419,1.256c4.911,11.725,15.532,8.566,16.789.228,1.332-8.946-2.284-17.931-2.246-29.314a59.465,59.465,0,0,1,62.13-58.208A58.589,58.589,0,0,1,507.123,199c2.094,33.844-28.666,58.818-58.17,61.977-24.669,2.627-63.424-15.609-66.355,13.439a.494.494,0,0,1,0,.228,112.914,112.914,0,1,1-58.361-103.778,16.941,16.941,0,0,0,19.035-1.447,19.719,19.719,0,0,0,4.454-5.368,15.228,15.228,0,0,0,2.665-10.241,21.433,21.433,0,0,0-10.926-18.54,388.05,388.05,0,0,0-57.79-24.212,3.16,3.16,0,0,1-1.637-4.835v-.19a3.16,3.16,0,0,1,3.807-1.142c10.126,3.579,51.584,18.464,61.482,25.278,8.49,5.863,9.555,16.865,7.386,29.2l25.659-.647a1.942,1.942,0,0,0,1.218-3.16l-8.451-25.7a8.109,8.109,0,0,1,.609-6.51h0a67.537,67.537,0,0,0,8.261-10.317,68.874,68.874,0,0,0,4.759-12.411,7.271,7.271,0,0,1,3.807-3.274h0a6.244,6.244,0,0,1,1.675-.343l27.3-5.292a2.056,2.056,0,0,0,1.637-1.18,70.235,70.235,0,0,0-5.292-11.421c-3.388-6.358-6.967-15.228-6.967-15.228A23.908,23.908,0,0,1,388.536,75,22.2,22.2,0,0,1,377.115,72,268.732,268.732,0,0,0,318.3,45.843a3.16,3.16,0,0,1-1.9-4.454,3.2,3.2,0,0,1,3.807-1.6,272.619,272.619,0,0,1,60.911,26.649,20.139,20.139,0,0,0,19.454.609h0a21.243,21.243,0,0,0,7.614-7.614,22.836,22.836,0,0,0,1.447-3.084,4.649,4.649,0,0,1,.419-1.294,20.671,20.671,0,0,0,.533-10.317,13.477,13.477,0,0,0-6.662-9.061A269.8,269.8,0,1,0,522.731,175.622Zm-188.6-5.977a3.236,3.236,0,0,1-4.416.495,3.312,3.312,0,0,1-1.751-4.15,3.738,3.738,0,0,1,6.167,3.655Zm6.015-25.012a3.16,3.16,0,0,1,4.416-.495,3.236,3.236,0,0,1,1.751,4.3,3.16,3.16,0,0,1-4.416.495,3.2,3.2,0,0,1-1.751-4.3Zm-.571,9.1a3.16,3.16,0,0,1,4.416-.495,3.236,3.236,0,0,1,1.751,4.112,3.16,3.16,0,0,1-4.416.495,3.236,3.236,0,0,1-1.751-4Zm0,7.043a3.312,3.312,0,0,1,1.789,4.15,3.2,3.2,0,0,1-4.416.495,3.312,3.312,0,0,1-1.789-4.15,3.236,3.236,0,0,1,4.492-.381Zm-19.91-13.933a9.175,9.175,0,0,1,12.22-4.454,9.479,9.479,0,0,1,2.246,12.982,9.175,9.175,0,0,1-12.3,4.492,9.479,9.479,0,0,1-2.17-13.02Zm74.083-81.279a3.16,3.16,0,0,1-4.416.495,3.236,3.236,0,0,1-1.751-4.112,3.16,3.16,0,0,1,4.416-.495,3.2,3.2,0,0,1,1.675,4.111Zm5.863-24.9a3.2,3.2,0,0,1,4.416-.495,3.312,3.312,0,0,1,1.751,4.15,3.738,3.738,0,0,1-6.167-3.655Zm-.266,8.794a3.236,3.236,0,0,1,4.416-.495,3.312,3.312,0,0,1,1.751,4.15,3.2,3.2,0,0,1-4.416.495A3.274,3.274,0,0,1,399.119,49.383Zm0,7.081a3.236,3.236,0,0,1,1.751,4.15,3.236,3.236,0,0,1-4.416.495,3.312,3.312,0,0,1-1.751-4.15,3.236,3.236,0,0,1,4.683-.609ZM378.828,42.835a9.175,9.175,0,0,1,12.22-4.492,9.479,9.479,0,0,1,2.246,12.982,9.213,9.213,0,0,1-12.22,4.492,9.441,9.441,0,0,1-2.17-13.1Zm46.978,292.07c-19.263,8.642-61.635,39.592-73.246,47.587s-55.962,42.562-57.485,47.587h0c6.776,14.466-2.513,32.968-20.291,46.864-19.8,15.456-47.549,13.02-54.211,4.454s-2.322-36.014,17.474-51.47c17.779-13.9,38.07-18.426,50.366-8.375h0c3.807.761,49.491-34.91,59.884-44.275s51.089-43.133,63.881-59.769,28.057-13.248,30.684-9.9S445.069,326.416,425.806,334.905Z" transform="translate(413.061 970.962)"/>
  </g>
</svg>
