<svg xmlns="http://www.w3.org/2000/svg" width="151.221" height="155.259" viewBox="0 0 151.221 155.259">
  <defs>
    <style>
      .cls-1 {
        fill: #ffefe4;
      }
    </style>
  </defs>
  <g id="FootPrintIcon" transform="matrix(-0.259, -0.966, 0.966, -0.259, -1255.153, 1542.844)">
    <path id="パス_39" data-name="パス 39" class="cls-1" d="M28.076,14.136C26.412,4.916,18.8-1.4,11.142.266s-12.5,10.277-10.8,19.47,9.273,15.455,16.934,13.9S29.767,23.356,28.076,14.136Z" transform="translate(1147.35 1639.642) rotate(139)"/>
    <path id="パス_40" data-name="パス 40" class="cls-1" d="M16.738,34.4c8.3-.819,14.266-9.167,13.209-18.493S21.626-.711,13.33.055-.935,9.222.121,18.68,8.443,35.244,16.738,34.4Z" transform="translate(1144.573 1689.487) rotate(139)"/>
    <path id="パス_41" data-name="パス 41" class="cls-1" d="M46.073,0C32.415,0,23.459,8.216,15.005,17.859,7.74,26.207,0,34.713,0,50.3,0,68.951,6.34,79.518,16.326,85.277c7.925,4.6,12.02-2.008,29.747-3.355,17.7,1.347,21.716,7.925,29.747,3.355C85.806,79.518,92.146,68.951,92.146,50.3c0-15.587-7.74-24.093-15.032-32.441C68.687,8.216,59.731,0,46.073,0Z" transform="translate(1122.217 1650.425) rotate(139)"/>
    <path id="パス_42" data-name="パス 42" class="cls-1" d="M17.271.24C9.61-1.319,2.028,4.889.337,14.109s3.144,17.938,10.8,19.523,15.243-4.65,16.934-13.9S24.932,1.8,17.271.24Z" transform="translate(1059.924 1715.605) rotate(139)"/>
    <path id="パス_43" data-name="パス 43" class="cls-1" d="M13.27,34.18c8.3.845,15.851-6.155,16.749-15.639S25,.734,16.81.047.959,6.2.087,15.687,4.975,33.361,13.27,34.18Z" transform="translate(1110.768 1718.583) rotate(139)"/>
  </g>
</svg>
