<svg xmlns="http://www.w3.org/2000/svg" width="1331.087" height="1835.407" viewBox="0 0 1331.087 1835.407">
  <defs>
    <style>
      .cls-1 {
        fill: #ffefe4;
      }
    </style>
  </defs>
  <g id="FootPrints" transform="translate(-95.856 -1550.611)">
    <g id="グループ_123" data-name="グループ 123" transform="translate(1743.208 139.999) rotate(74)">
      <path id="パス_39" data-name="パス 39" class="cls-1" d="M28.076,14.136C26.412,4.916,18.8-1.4,11.142.266s-12.5,10.277-10.8,19.47,9.273,15.455,16.934,13.9S29.767,23.356,28.076,14.136Z" transform="translate(1147.35 1639.642) rotate(139)"/>
      <path id="パス_40" data-name="パス 40" class="cls-1" d="M16.738,34.4c8.3-.819,14.266-9.167,13.209-18.493S21.626-.711,13.33.055-.935,9.222.121,18.68,8.443,35.244,16.738,34.4Z" transform="translate(1144.573 1689.487) rotate(139)"/>
      <path id="パス_41" data-name="パス 41" class="cls-1" d="M46.073,0C32.415,0,23.459,8.216,15.005,17.859,7.74,26.207,0,34.713,0,50.3,0,68.951,6.34,79.518,16.326,85.277c7.925,4.6,12.02-2.008,29.747-3.355,17.7,1.347,21.716,7.925,29.747,3.355C85.806,79.518,92.146,68.951,92.146,50.3c0-15.587-7.74-24.093-15.032-32.441C68.687,8.216,59.731,0,46.073,0Z" transform="translate(1122.217 1650.425) rotate(139)"/>
      <path id="パス_42" data-name="パス 42" class="cls-1" d="M17.271.24C9.61-1.319,2.028,4.889.337,14.109s3.144,17.938,10.8,19.523,15.243-4.65,16.934-13.9S24.932,1.8,17.271.24Z" transform="translate(1059.924 1715.605) rotate(139)"/>
      <path id="パス_43" data-name="パス 43" class="cls-1" d="M13.27,34.18c8.3.845,15.851-6.155,16.749-15.639S25,.734,16.81.047.959,6.2.087,15.687,4.975,33.361,13.27,34.18Z" transform="translate(1110.768 1718.583) rotate(139)"/>
    </g>
    <g id="グループ_139" data-name="グループ 139">
      <g id="グループ_124" data-name="グループ 124" transform="translate(1332.709 131.87) rotate(68)">
        <path id="パス_39-2" data-name="パス 39" class="cls-1" d="M28.076,14.136C26.412,4.916,18.8-1.4,11.142.266s-12.5,10.277-10.8,19.47,9.273,15.455,16.934,13.9S29.767,23.356,28.076,14.136Z" transform="translate(1147.35 1639.642) rotate(139)"/>
        <path id="パス_40-2" data-name="パス 40" class="cls-1" d="M16.738,34.4c8.3-.819,14.266-9.167,13.209-18.493S21.626-.711,13.33.055-.935,9.222.121,18.68,8.443,35.244,16.738,34.4Z" transform="translate(1144.573 1689.487) rotate(139)"/>
        <path id="パス_41-2" data-name="パス 41" class="cls-1" d="M46.073,0C32.415,0,23.459,8.216,15.005,17.859,7.74,26.207,0,34.713,0,50.3,0,68.951,6.34,79.518,16.326,85.277c7.925,4.6,12.02-2.008,29.747-3.355,17.7,1.347,21.716,7.925,29.747,3.355C85.806,79.518,92.146,68.951,92.146,50.3c0-15.587-7.74-24.093-15.032-32.441C68.687,8.216,59.731,0,46.073,0Z" transform="translate(1122.217 1650.425) rotate(139)"/>
        <path id="パス_42-2" data-name="パス 42" class="cls-1" d="M17.271.24C9.61-1.319,2.028,4.889.337,14.109s3.144,17.938,10.8,19.523,15.243-4.65,16.934-13.9S24.932,1.8,17.271.24Z" transform="translate(1059.924 1715.605) rotate(139)"/>
        <path id="パス_43-2" data-name="パス 43" class="cls-1" d="M13.27,34.18c8.3.845,15.851-6.155,16.749-15.639S25,.734,16.81.047.959,6.2.087,15.687,4.975,33.361,13.27,34.18Z" transform="translate(1110.768 1718.583) rotate(139)"/>
      </g>
      <g id="グループ_125" data-name="グループ 125" transform="matrix(0.559, 0.829, -0.829, 0.559, 1141.582, 152.175)">
        <path id="パス_39-3" data-name="パス 39" class="cls-1" d="M28.076,14.136C26.412,4.916,18.8-1.4,11.142.266s-12.5,10.277-10.8,19.47,9.273,15.455,16.934,13.9S29.767,23.356,28.076,14.136Z" transform="translate(1147.35 1639.642) rotate(139)"/>
        <path id="パス_40-3" data-name="パス 40" class="cls-1" d="M16.738,34.4c8.3-.819,14.266-9.167,13.209-18.493S21.626-.711,13.33.055-.935,9.222.121,18.68,8.443,35.244,16.738,34.4Z" transform="translate(1144.573 1689.487) rotate(139)"/>
        <path id="パス_41-3" data-name="パス 41" class="cls-1" d="M46.073,0C32.415,0,23.459,8.216,15.005,17.859,7.74,26.207,0,34.713,0,50.3,0,68.951,6.34,79.518,16.326,85.277c7.925,4.6,12.02-2.008,29.747-3.355,17.7,1.347,21.716,7.925,29.747,3.355C85.806,79.518,92.146,68.951,92.146,50.3c0-15.587-7.74-24.093-15.032-32.441C68.687,8.216,59.731,0,46.073,0Z" transform="translate(1122.217 1650.425) rotate(139)"/>
        <path id="パス_42-3" data-name="パス 42" class="cls-1" d="M17.271.24C9.61-1.319,2.028,4.889.337,14.109s3.144,17.938,10.8,19.523,15.243-4.65,16.934-13.9S24.932,1.8,17.271.24Z" transform="translate(1059.924 1715.605) rotate(139)"/>
        <path id="パス_43-3" data-name="パス 43" class="cls-1" d="M13.27,34.18c8.3.845,15.851-6.155,16.749-15.639S25,.734,16.81.047.959,6.2.087,15.687,4.975,33.361,13.27,34.18Z" transform="translate(1110.768 1718.583) rotate(139)"/>
      </g>
      <g id="グループ_126" data-name="グループ 126" transform="translate(104.79 221.141) rotate(31)">
        <path id="パス_39-4" data-name="パス 39" class="cls-1" d="M28.076,14.136C26.412,4.916,18.8-1.4,11.142.266s-12.5,10.277-10.8,19.47,9.273,15.455,16.934,13.9S29.767,23.356,28.076,14.136Z" transform="translate(1147.35 1639.642) rotate(139)"/>
        <path id="パス_40-4" data-name="パス 40" class="cls-1" d="M16.738,34.4c8.3-.819,14.266-9.167,13.209-18.493S21.626-.711,13.33.055-.935,9.222.121,18.68,8.443,35.244,16.738,34.4Z" transform="translate(1144.573 1689.487) rotate(139)"/>
        <path id="パス_41-4" data-name="パス 41" class="cls-1" d="M46.073,0C32.415,0,23.459,8.216,15.005,17.859,7.74,26.207,0,34.713,0,50.3,0,68.951,6.34,79.518,16.326,85.277c7.925,4.6,12.02-2.008,29.747-3.355,17.7,1.347,21.716,7.925,29.747,3.355C85.806,79.518,92.146,68.951,92.146,50.3c0-15.587-7.74-24.093-15.032-32.441C68.687,8.216,59.731,0,46.073,0Z" transform="translate(1122.217 1650.425) rotate(139)"/>
        <path id="パス_42-4" data-name="パス 42" class="cls-1" d="M17.271.24C9.61-1.319,2.028,4.889.337,14.109s3.144,17.938,10.8,19.523,15.243-4.65,16.934-13.9S24.932,1.8,17.271.24Z" transform="translate(1059.924 1715.605) rotate(139)"/>
        <path id="パス_43-4" data-name="パス 43" class="cls-1" d="M13.27,34.18c8.3.845,15.851-6.155,16.749-15.639S25,.734,16.81.047.959,6.2.087,15.687,4.975,33.361,13.27,34.18Z" transform="translate(1110.768 1718.583) rotate(139)"/>
      </g>
      <g id="グループ_127" data-name="グループ 127" transform="translate(-38.015 439.972) rotate(19)">
        <path id="パス_39-5" data-name="パス 39" class="cls-1" d="M28.076,14.136C26.412,4.916,18.8-1.4,11.142.266s-12.5,10.277-10.8,19.47,9.273,15.455,16.934,13.9S29.767,23.356,28.076,14.136Z" transform="translate(1147.35 1639.642) rotate(139)"/>
        <path id="パス_40-5" data-name="パス 40" class="cls-1" d="M16.738,34.4c8.3-.819,14.266-9.167,13.209-18.493S21.626-.711,13.33.055-.935,9.222.121,18.68,8.443,35.244,16.738,34.4Z" transform="translate(1144.573 1689.487) rotate(139)"/>
        <path id="パス_41-5" data-name="パス 41" class="cls-1" d="M46.073,0C32.415,0,23.459,8.216,15.005,17.859,7.74,26.207,0,34.713,0,50.3,0,68.951,6.34,79.518,16.326,85.277c7.925,4.6,12.02-2.008,29.747-3.355,17.7,1.347,21.716,7.925,29.747,3.355C85.806,79.518,92.146,68.951,92.146,50.3c0-15.587-7.74-24.093-15.032-32.441C68.687,8.216,59.731,0,46.073,0Z" transform="translate(1122.217 1650.425) rotate(139)"/>
        <path id="パス_42-5" data-name="パス 42" class="cls-1" d="M17.271.24C9.61-1.319,2.028,4.889.337,14.109s3.144,17.938,10.8,19.523,15.243-4.65,16.934-13.9S24.932,1.8,17.271.24Z" transform="translate(1059.924 1715.605) rotate(139)"/>
        <path id="パス_43-5" data-name="パス 43" class="cls-1" d="M13.27,34.18c8.3.845,15.851-6.155,16.749-15.639S25,.734,16.81.047.959,6.2.087,15.687,4.975,33.361,13.27,34.18Z" transform="translate(1110.768 1718.583) rotate(139)"/>
      </g>
      <g id="グループ_128" data-name="グループ 128" transform="translate(-876.087 1044.224) rotate(-6)">
        <path id="パス_39-6" data-name="パス 39" class="cls-1" d="M28.076,14.136C26.412,4.916,18.8-1.4,11.142.266s-12.5,10.277-10.8,19.47,9.273,15.455,16.934,13.9S29.767,23.356,28.076,14.136Z" transform="translate(1147.35 1639.642) rotate(139)"/>
        <path id="パス_40-6" data-name="パス 40" class="cls-1" d="M16.738,34.4c8.3-.819,14.266-9.167,13.209-18.493S21.626-.711,13.33.055-.935,9.222.121,18.68,8.443,35.244,16.738,34.4Z" transform="translate(1144.573 1689.487) rotate(139)"/>
        <path id="パス_41-6" data-name="パス 41" class="cls-1" d="M46.073,0C32.415,0,23.459,8.216,15.005,17.859,7.74,26.207,0,34.713,0,50.3,0,68.951,6.34,79.518,16.326,85.277c7.925,4.6,12.02-2.008,29.747-3.355,17.7,1.347,21.716,7.925,29.747,3.355C85.806,79.518,92.146,68.951,92.146,50.3c0-15.587-7.74-24.093-15.032-32.441C68.687,8.216,59.731,0,46.073,0Z" transform="translate(1122.217 1650.425) rotate(139)"/>
        <path id="パス_42-6" data-name="パス 42" class="cls-1" d="M17.271.24C9.61-1.319,2.028,4.889.337,14.109s3.144,17.938,10.8,19.523,15.243-4.65,16.934-13.9S24.932,1.8,17.271.24Z" transform="translate(1059.924 1715.605) rotate(139)"/>
        <path id="パス_43-6" data-name="パス 43" class="cls-1" d="M13.27,34.18c8.3.845,15.851-6.155,16.749-15.639S25,.734,16.81.047.959,6.2.087,15.687,4.975,33.361,13.27,34.18Z" transform="translate(1110.768 1718.583) rotate(139)"/>
      </g>
      <g id="グループ_129" data-name="グループ 129" transform="translate(-556.326 1017.973) rotate(-6)">
        <path id="パス_39-7" data-name="パス 39" class="cls-1" d="M28.076,14.136C26.412,4.916,18.8-1.4,11.142.266s-12.5,10.277-10.8,19.47,9.273,15.455,16.934,13.9S29.767,23.356,28.076,14.136Z" transform="translate(1147.35 1639.642) rotate(139)"/>
        <path id="パス_40-7" data-name="パス 40" class="cls-1" d="M16.738,34.4c8.3-.819,14.266-9.167,13.209-18.493S21.626-.711,13.33.055-.935,9.222.121,18.68,8.443,35.244,16.738,34.4Z" transform="translate(1144.573 1689.487) rotate(139)"/>
        <path id="パス_41-7" data-name="パス 41" class="cls-1" d="M46.073,0C32.415,0,23.459,8.216,15.005,17.859,7.74,26.207,0,34.713,0,50.3,0,68.951,6.34,79.518,16.326,85.277c7.925,4.6,12.02-2.008,29.747-3.355,17.7,1.347,21.716,7.925,29.747,3.355C85.806,79.518,92.146,68.951,92.146,50.3c0-15.587-7.74-24.093-15.032-32.441C68.687,8.216,59.731,0,46.073,0Z" transform="translate(1122.217 1650.425) rotate(139)"/>
        <path id="パス_42-7" data-name="パス 42" class="cls-1" d="M17.271.24C9.61-1.319,2.028,4.889.337,14.109s3.144,17.938,10.8,19.523,15.243-4.65,16.934-13.9S24.932,1.8,17.271.24Z" transform="translate(1059.924 1715.605) rotate(139)"/>
        <path id="パス_43-7" data-name="パス 43" class="cls-1" d="M13.27,34.18c8.3.845,15.851-6.155,16.749-15.639S25,.734,16.81.047.959,6.2.087,15.687,4.975,33.361,13.27,34.18Z" transform="translate(1110.768 1718.583) rotate(139)"/>
      </g>
      <g id="グループ_130" data-name="グループ 130" transform="translate(-551.661 1533.81) rotate(-17)">
        <path id="パス_39-8" data-name="パス 39" class="cls-1" d="M28.076,14.136C26.412,4.916,18.8-1.4,11.142.266s-12.5,10.277-10.8,19.47,9.273,15.455,16.934,13.9S29.767,23.356,28.076,14.136Z" transform="translate(1147.35 1639.642) rotate(139)"/>
        <path id="パス_40-8" data-name="パス 40" class="cls-1" d="M16.738,34.4c8.3-.819,14.266-9.167,13.209-18.493S21.626-.711,13.33.055-.935,9.222.121,18.68,8.443,35.244,16.738,34.4Z" transform="translate(1144.573 1689.487) rotate(139)"/>
        <path id="パス_41-8" data-name="パス 41" class="cls-1" d="M46.073,0C32.415,0,23.459,8.216,15.005,17.859,7.74,26.207,0,34.713,0,50.3,0,68.951,6.34,79.518,16.326,85.277c7.925,4.6,12.02-2.008,29.747-3.355,17.7,1.347,21.716,7.925,29.747,3.355C85.806,79.518,92.146,68.951,92.146,50.3c0-15.587-7.74-24.093-15.032-32.441C68.687,8.216,59.731,0,46.073,0Z" transform="translate(1122.217 1650.425) rotate(139)"/>
        <path id="パス_42-8" data-name="パス 42" class="cls-1" d="M17.271.24C9.61-1.319,2.028,4.889.337,14.109s3.144,17.938,10.8,19.523,15.243-4.65,16.934-13.9S24.932,1.8,17.271.24Z" transform="translate(1059.924 1715.605) rotate(139)"/>
        <path id="パス_43-8" data-name="パス 43" class="cls-1" d="M13.27,34.18c8.3.845,15.851-6.155,16.749-15.639S25,.734,16.81.047.959,6.2.087,15.687,4.975,33.361,13.27,34.18Z" transform="translate(1110.768 1718.583) rotate(139)"/>
      </g>
      <g id="グループ_133" data-name="グループ 133" transform="translate(-815.979 1569.486) rotate(-17)">
        <path id="パス_39-9" data-name="パス 39" class="cls-1" d="M28.076,14.136C26.412,4.916,18.8-1.4,11.142.266s-12.5,10.277-10.8,19.47,9.273,15.455,16.934,13.9S29.767,23.356,28.076,14.136Z" transform="translate(1147.35 1639.642) rotate(139)"/>
        <path id="パス_40-9" data-name="パス 40" class="cls-1" d="M16.738,34.4c8.3-.819,14.266-9.167,13.209-18.493S21.626-.711,13.33.055-.935,9.222.121,18.68,8.443,35.244,16.738,34.4Z" transform="translate(1144.573 1689.487) rotate(139)"/>
        <path id="パス_41-9" data-name="パス 41" class="cls-1" d="M46.073,0C32.415,0,23.459,8.216,15.005,17.859,7.74,26.207,0,34.713,0,50.3,0,68.951,6.34,79.518,16.326,85.277c7.925,4.6,12.02-2.008,29.747-3.355,17.7,1.347,21.716,7.925,29.747,3.355C85.806,79.518,92.146,68.951,92.146,50.3c0-15.587-7.74-24.093-15.032-32.441C68.687,8.216,59.731,0,46.073,0Z" transform="translate(1122.217 1650.425) rotate(139)"/>
        <path id="パス_42-9" data-name="パス 42" class="cls-1" d="M17.271.24C9.61-1.319,2.028,4.889.337,14.109s3.144,17.938,10.8,19.523,15.243-4.65,16.934-13.9S24.932,1.8,17.271.24Z" transform="translate(1059.924 1715.605) rotate(139)"/>
        <path id="パス_43-9" data-name="パス 43" class="cls-1" d="M13.27,34.18c8.3.845,15.851-6.155,16.749-15.639S25,.734,16.81.047.959,6.2.087,15.687,4.975,33.361,13.27,34.18Z" transform="translate(1110.768 1718.583) rotate(139)"/>
      </g>
      <g id="グループ_131" data-name="グループ 131" transform="translate(-121.49 1487.585) rotate(-5)">
        <path id="パス_39-10" data-name="パス 39" class="cls-1" d="M28.076,14.136C26.412,4.916,18.8-1.4,11.142.266s-12.5,10.277-10.8,19.47,9.273,15.455,16.934,13.9S29.767,23.356,28.076,14.136Z" transform="translate(1147.35 1639.642) rotate(139)"/>
        <path id="パス_40-10" data-name="パス 40" class="cls-1" d="M16.738,34.4c8.3-.819,14.266-9.167,13.209-18.493S21.626-.711,13.33.055-.935,9.222.121,18.68,8.443,35.244,16.738,34.4Z" transform="translate(1144.573 1689.487) rotate(139)"/>
        <path id="パス_41-10" data-name="パス 41" class="cls-1" d="M46.073,0C32.415,0,23.459,8.216,15.005,17.859,7.74,26.207,0,34.713,0,50.3,0,68.951,6.34,79.518,16.326,85.277c7.925,4.6,12.02-2.008,29.747-3.355,17.7,1.347,21.716,7.925,29.747,3.355C85.806,79.518,92.146,68.951,92.146,50.3c0-15.587-7.74-24.093-15.032-32.441C68.687,8.216,59.731,0,46.073,0Z" transform="translate(1122.217 1650.425) rotate(139)"/>
        <path id="パス_42-10" data-name="パス 42" class="cls-1" d="M17.271.24C9.61-1.319,2.028,4.889.337,14.109s3.144,17.938,10.8,19.523,15.243-4.65,16.934-13.9S24.932,1.8,17.271.24Z" transform="translate(1059.924 1715.605) rotate(139)"/>
        <path id="パス_43-10" data-name="パス 43" class="cls-1" d="M13.27,34.18c8.3.845,15.851-6.155,16.749-15.639S25,.734,16.81.047.959,6.2.087,15.687,4.975,33.361,13.27,34.18Z" transform="translate(1110.768 1718.583) rotate(139)"/>
      </g>
      <g id="グループ_132" data-name="グループ 132" transform="matrix(0.956, 0.292, -0.292, 0.956, 809.112, 1147.197)">
        <path id="パス_39-11" data-name="パス 39" class="cls-1" d="M28.076,14.136C26.412,4.916,18.8-1.4,11.142.266s-12.5,10.277-10.8,19.47,9.273,15.455,16.934,13.9S29.767,23.356,28.076,14.136Z" transform="translate(1147.35 1639.642) rotate(139)"/>
        <path id="パス_40-11" data-name="パス 40" class="cls-1" d="M16.738,34.4c8.3-.819,14.266-9.167,13.209-18.493S21.626-.711,13.33.055-.935,9.222.121,18.68,8.443,35.244,16.738,34.4Z" transform="translate(1144.573 1689.487) rotate(139)"/>
        <path id="パス_41-11" data-name="パス 41" class="cls-1" d="M46.073,0C32.415,0,23.459,8.216,15.005,17.859,7.74,26.207,0,34.713,0,50.3,0,68.951,6.34,79.518,16.326,85.277c7.925,4.6,12.02-2.008,29.747-3.355,17.7,1.347,21.716,7.925,29.747,3.355C85.806,79.518,92.146,68.951,92.146,50.3c0-15.587-7.74-24.093-15.032-32.441C68.687,8.216,59.731,0,46.073,0Z" transform="translate(1122.217 1650.425) rotate(139)"/>
        <path id="パス_42-11" data-name="パス 42" class="cls-1" d="M17.271.24C9.61-1.319,2.028,4.889.337,14.109s3.144,17.938,10.8,19.523,15.243-4.65,16.934-13.9S24.932,1.8,17.271.24Z" transform="translate(1059.924 1715.605) rotate(139)"/>
        <path id="パス_43-11" data-name="パス 43" class="cls-1" d="M13.27,34.18c8.3.845,15.851-6.155,16.749-15.639S25,.734,16.81.047.959,6.2.087,15.687,4.975,33.361,13.27,34.18Z" transform="translate(1110.768 1718.583) rotate(139)"/>
      </g>
    </g>
    <g id="グループ_138" data-name="グループ 138" transform="translate(207.816 1628.957) rotate(1)">
      <path id="パス_39-12" data-name="パス 39" class="cls-1" d="M28.076,14.136C26.412,4.916,18.8-1.4,11.142.266s-12.5,10.277-10.8,19.47,9.273,15.455,16.934,13.9S29.767,23.356,28.076,14.136Z" transform="translate(1147.35 1639.642) rotate(139)"/>
      <path id="パス_40-12" data-name="パス 40" class="cls-1" d="M16.738,34.4c8.3-.819,14.266-9.167,13.209-18.493S21.626-.711,13.33.055-.935,9.222.121,18.68,8.443,35.244,16.738,34.4Z" transform="translate(1144.573 1689.487) rotate(139)"/>
      <path id="パス_41-12" data-name="パス 41" class="cls-1" d="M46.073,0C32.415,0,23.459,8.216,15.005,17.859,7.74,26.207,0,34.713,0,50.3,0,68.951,6.34,79.518,16.326,85.277c7.925,4.6,12.02-2.008,29.747-3.355,17.7,1.347,21.716,7.925,29.747,3.355C85.806,79.518,92.146,68.951,92.146,50.3c0-15.587-7.74-24.093-15.032-32.441C68.687,8.216,59.731,0,46.073,0Z" transform="translate(1122.217 1650.425) rotate(139)"/>
      <path id="パス_42-12" data-name="パス 42" class="cls-1" d="M17.271.24C9.61-1.319,2.028,4.889.337,14.109s3.144,17.938,10.8,19.523,15.243-4.65,16.934-13.9S24.932,1.8,17.271.24Z" transform="translate(1059.924 1715.605) rotate(139)"/>
      <path id="パス_43-12" data-name="パス 43" class="cls-1" d="M13.27,34.18c8.3.845,15.851-6.155,16.749-15.639S25,.734,16.81.047.959,6.2.087,15.687,4.975,33.361,13.27,34.18Z" transform="translate(1110.768 1718.583) rotate(139)"/>
    </g>
  </g>
</svg>
