<svg id="HeaderLogo" xmlns="http://www.w3.org/2000/svg" width="182.198" height="57.719" viewBox="0 0 182.198 57.719">
  <defs>
    <style>
      .cls-1 {
        fill: #fff;
      }
    </style>
  </defs>
  <path id="パス_1" data-name="パス 1" class="cls-1" d="M175.1,42.648c0-2.688-.081-3.779-.163-4.691A20.15,20.15,0,0,1,180.03,37c.692,0,.855.228.855,2.96V61.766c0,2.227.081,4.687.163,6.006a46.447,46.447,0,0,1-5.375.366c-.407,0-.57-.138-.57-.595Z" transform="translate(-103.754 -24.949)"/>
  <path id="パス_2" data-name="パス 2" class="cls-1" d="M209.732,89.281a49.207,49.207,0,0,0,4.927-7.965,11.4,11.4,0,0,1-.855-1.824c-.855-2.5-4.438-13.063-5.864-16.288a13.411,13.411,0,0,1,4.886-1.364c.855,0,1.1.684,1.384,1.5,1.059,3.188,2.484,8.058,3.42,11.56a86.169,86.169,0,0,0,3.176-13.063,19.928,19.928,0,0,1,3.42.546c1.181.322,1.3.912,1.059,2.1a83.553,83.553,0,0,1-5.253,16.659c-2.3,5.2-5.334,10.489-6.271,10.489a5.764,5.764,0,0,1-4.031-2.036Z" transform="translate(-123.317 -39.674)"/>
  <path id="パス_3" data-name="パス 3" class="cls-1" d="M270.162,48.241c0-3.05-.041-4.915-.122-5.778.814-.138,4.194-.366,5.131-.366.814,0,.937.5.937,2.5v11.56c2.85-3.958,7.207-10.331,9.61-14.252a20.556,20.556,0,0,1,3.461.273c1.792.322,1.751,1.051.937,2.37-1.466,2.321-5.253,7.509-7.9,11.2a149.594,149.594,0,0,0,9.447,14.382v.228a13.193,13.193,0,0,1-4.846.684c-1.466,0-2.24-.366-3.543-2.231-1.873-2.777-6.637-10.514-7.167-11.788v7.969c0,3.184.081,4.687.122,5.6a34.2,34.2,0,0,1-5.09.362c-.692,0-.977-.134-.977-.908Z" transform="translate(-160.13 -27.859)"/>
  <path id="パス_4" data-name="パス 4" class="cls-1" d="M341.762,48.241c0-3.05-.041-4.915-.122-5.778.814-.138,4.194-.366,5.131-.366.814,0,.937.5.937,2.5v11.56c2.85-3.958,7.207-10.331,9.61-14.252a20.556,20.556,0,0,1,3.461.273c1.792.322,1.751,1.051.937,2.37-1.466,2.321-5.253,7.509-7.9,11.2a149.6,149.6,0,0,0,9.447,14.382v.228a13.193,13.193,0,0,1-4.846.684c-1.466,0-2.24-.366-3.543-2.231C353,66.036,348.237,58.3,347.707,57.025v7.969c0,3.184.081,4.687.122,5.6a34.2,34.2,0,0,1-5.09.362c-.692,0-.977-.134-.977-.908Z" transform="translate(-202.574 -27.859)"/>
  <path id="パス_5" data-name="パス 5" class="cls-1" d="M422.939,77.3a6.445,6.445,0,0,1-2.647,5.053,12.733,12.733,0,0,1-3.624.68c-6.108,0-9.529-3.5-9.529-10.469,0-5.326,3.3-10.742,8.918-10.742,5.456,0,7.533,4.414,7.533,8.144a7.492,7.492,0,0,1-.081,1.547c-.163.684-1.629,1.413-3.461,2a39.71,39.71,0,0,1-7.207.228c.367,3.412,2.891,4.479,5.212,4.479a11.682,11.682,0,0,0,4.764-1.1Zm-10.058-7.191a36.168,36.168,0,0,0,4.927,0c.2,0,.407-.407.407-.957,0-1.865-.733-3.506-2.525-3.506C414.413,65.644,412.963,67.012,412.882,70.107Z" transform="translate(-241.403 -39.662)"/>
  <path id="パス_6" data-name="パス 6" class="cls-1" d="M62.809,63.175l-.179.228.118-.143-.11.151.179-.232a6.669,6.669,0,0,1,3.07-2.069c1.7-.407,4.007.2,5.77-.611,2.48-1.136,2.789-2.651,2.313-3.49-.745-1.323-2.26-1.881-4.634-.538a16.533,16.533,0,0,0-4.227,3.8l-.44.558.436-.558a16.634,16.634,0,0,0,2.671-5c.741-2.622-.159-3.962-1.629-4.373-.928-.261-2.329.407-2.85,3.078-.366,1.9.778,4,.778,5.746A6.694,6.694,0,0,1,62.809,63.175Z" transform="translate(-37.177 -30.155)"/>
  <path id="パス_7" data-name="パス 7" class="cls-1" d="M77.341,53.95l-.081.106.049-.049-.041.057.086-.106a6.048,6.048,0,0,1,.566-.554,3.616,3.616,0,0,1,1.629-.558A3.922,3.922,0,0,0,82.3,51.93a1.465,1.465,0,0,0,.077-2.085,1.629,1.629,0,0,0-2.1.35,1.629,1.629,0,0,0-.155-2.117,1.48,1.48,0,0,0-2.008.566,3.912,3.912,0,0,0-.236,2.891,3.571,3.571,0,0,1-.155,1.731A5.893,5.893,0,0,1,77.341,53.95Z" transform="translate(-45.85 -28.397)"/>
  <path id="パス_8" data-name="パス 8" class="cls-1" d="M61.9,65.175c-1.091.073-2.671,0-3.665.094a5.42,5.42,0,0,0-2.626.928A9.08,9.08,0,0,0,54.3,67.419a9.406,9.406,0,0,0,.871-1.564,5.363,5.363,0,0,0,.281-2.769c-.159-1.01-.595-2.533-.778-3.567-.314-1.8,0-3.754-.977-3.636-1.5.175-3.286,2.537-3.616,5.974-.261,2.724,1.629,5.77,2.443,6.922.183.257-.13.928-.179,1.063v.024h0v-.029c.118-.073.745-.5,1.038-.383,1.3.5,4.715,1.629,7.3.733,3.258-1.136,5.131-3.425,4.947-4.927C65.546,64.275,63.717,65.061,61.9,65.175Z" transform="translate(-29.726 -33.14)"/>
  <path id="パス_9" data-name="パス 9" class="cls-1" d="M56,18.811a8.392,8.392,0,0,0-14.048-2.74h0A8.421,8.421,0,0,0,40.284,24.7a.435.435,0,0,0,.045.134c.525,1.254,1.661.916,1.8.024a27.808,27.808,0,0,0-.24-3.135A6.36,6.36,0,0,1,48.53,15.5a6.267,6.267,0,0,1,5.823,5.823c.224,3.62-3.066,6.291-6.222,6.629-2.639.281-6.784-1.67-7.1,1.437a.053.053,0,0,1,0,.024,12.078,12.078,0,1,1-6.242-11.1,1.812,1.812,0,0,0,2.036-.155,2.109,2.109,0,0,0,.476-.574,1.629,1.629,0,0,0,.285-1.1A2.293,2.293,0,0,0,36.42,14.5a41.506,41.506,0,0,0-6.181-2.59.338.338,0,0,1-.175-.517v-.02a.338.338,0,0,1,.407-.122,51.215,51.215,0,0,1,6.576,2.7c.908.627,1.022,1.8.79,3.123l2.745-.069a.208.208,0,0,0,.13-.338l-.9-2.749a.867.867,0,0,1,.065-.7h0a7.224,7.224,0,0,0,.884-1.1,7.367,7.367,0,0,0,.509-1.327.778.778,0,0,1,.407-.35h0a.668.668,0,0,1,.179-.037l2.92-.566a.22.22,0,0,0,.175-.126A7.513,7.513,0,0,0,44.38,8.5c-.362-.68-.745-1.629-.745-1.629a2.557,2.557,0,0,1-1.967,1.189,2.374,2.374,0,0,1-1.222-.322,28.744,28.744,0,0,0-6.291-2.8.338.338,0,0,1-.2-.476.342.342,0,0,1,.407-.171,29.16,29.16,0,0,1,6.515,2.85,2.154,2.154,0,0,0,2.081.065h0a2.272,2.272,0,0,0,.814-.814,2.443,2.443,0,0,0,.155-.33.5.5,0,0,1,.045-.138,2.211,2.211,0,0,0,.057-1.1,1.441,1.441,0,0,0-.713-.969A28.858,28.858,0,1,0,56.022,18.819Zm-20.173-.639a.346.346,0,0,1-.472.053.354.354,0,0,1-.187-.444.4.4,0,0,1,.66.391Zm.643-2.675a.338.338,0,0,1,.472-.053.346.346,0,0,1,.187.46.338.338,0,0,1-.472.053.342.342,0,0,1-.187-.46Zm-.061.973a.338.338,0,0,1,.472-.053.346.346,0,0,1,.187.44.338.338,0,0,1-.472.053.346.346,0,0,1-.187-.428Zm0,.753a.354.354,0,0,1,.191.444.342.342,0,0,1-.472.053.354.354,0,0,1-.191-.444.346.346,0,0,1,.48-.041Zm-2.13-1.49a.981.981,0,0,1,1.307-.476,1.014,1.014,0,0,1,.24,1.389.981.981,0,0,1-1.315.48,1.014,1.014,0,0,1-.232-1.393ZM42.2,7.039a.338.338,0,0,1-.472.053.346.346,0,0,1-.187-.44.338.338,0,0,1,.472-.053.342.342,0,0,1,.179.44Zm.627-2.663a.342.342,0,0,1,.472-.053.354.354,0,0,1,.187.444.4.4,0,0,1-.66-.391Zm-.029.941a.346.346,0,0,1,.472-.053.354.354,0,0,1,.187.444.342.342,0,0,1-.472.053A.35.35,0,0,1,42.8,5.316Zm0,.757a.346.346,0,0,1,.187.444.346.346,0,0,1-.472.053.354.354,0,0,1-.187-.444.346.346,0,0,1,.5-.065ZM40.63,4.616a.981.981,0,0,1,1.307-.48,1.014,1.014,0,0,1,.24,1.389A.985.985,0,0,1,40.87,6a1.01,1.01,0,0,1-.232-1.4Zm5.025,31.24c-2.06.924-6.593,4.235-7.835,5.09s-5.986,4.552-6.149,5.09h0c.725,1.547-.269,3.526-2.17,5.013-2.117,1.653-5.086,1.393-5.8.476s-.248-3.852,1.869-5.505c1.9-1.486,4.072-1.971,5.387-.9h0c.407.081,5.294-3.734,6.405-4.736S42.829,35.775,44.2,34s3-1.417,3.282-1.059S47.715,34.948,45.655,35.856Z" transform="translate(-0.123 -0.038)"/>
</svg>
