<svg xmlns="http://www.w3.org/2000/svg" width="80.364" height="80.364" viewBox="0 0 80.364 80.364">
  <defs>
    <style>
      .cls-1 {
        fill: #806868;
      }
    </style>
  </defs>
  <g id="instaIcon" transform="translate(-499.5 -1717.636)">
    <path id="パス_19" data-name="パス 19" class="cls-1" d="M225.127,218.063A7.063,7.063,0,1,1,218.063,211,7.064,7.064,0,0,1,225.127,218.063Zm0,0" transform="translate(321.619 1539.755)"/>
    <path id="パス_20" data-name="パス 20" class="cls-1" d="M153.276,120H129.418A9.428,9.428,0,0,0,120,129.418v23.858a9.428,9.428,0,0,0,9.418,9.418h23.858a9.428,9.428,0,0,0,9.418-9.418V129.418A9.428,9.428,0,0,0,153.276,120Zm-11.929,33.119a11.772,11.772,0,1,1,11.772-11.772A11.785,11.785,0,0,1,141.347,153.119Zm13.5-22.916a2.354,2.354,0,1,1,2.354-2.354A2.354,2.354,0,0,1,154.845,130.2Zm0,0" transform="translate(398.335 1616.471)"/>
    <path id="パス_21" data-name="パス 21" class="cls-1" d="M59.174,0H21.19A21.214,21.214,0,0,0,0,21.19V59.174a21.214,21.214,0,0,0,21.19,21.19H59.174a21.214,21.214,0,0,0,21.19-21.19V21.19A21.214,21.214,0,0,0,59.174,0Zm7.063,52.111A14.143,14.143,0,0,1,52.111,66.238H28.253A14.143,14.143,0,0,1,14.127,52.111V28.253A14.143,14.143,0,0,1,28.253,14.127H52.111A14.143,14.143,0,0,1,66.238,28.253Zm0,0" transform="translate(499.5 1717.636)"/>
  </g>
</svg>
