<svg xmlns="http://www.w3.org/2000/svg" width="28.419" height="44.859" viewBox="0 0 28.419 44.859">
  <defs>
    <style>
      .cls-1 {
        fill: #3d3030;
      }
    </style>
  </defs>
  <g id="ScrollFootPrints" transform="translate(-664.177 -691.5)">
    <g id="レイヤー_2" data-name="レイヤー 2" transform="translate(676.376 702.582) rotate(180)">
      <g id="レイヤー_1" data-name="レイヤー 1" transform="translate(0 0)">
        <path id="パス_14" data-name="パス 14" class="cls-1" d="M2.375,1.2A1.294,1.294,0,0,0,.942.023,1.365,1.365,0,0,0,.029,1.669,1.305,1.305,0,0,0,1.461,2.844,1.362,1.362,0,0,0,2.375,1.2Z" transform="translate(0 3.027)"/>
        <path id="パス_15" data-name="パス 15" class="cls-1" d="M1.416,2.909A1.357,1.357,0,0,0,2.533,1.345,1.4,1.4,0,0,0,1.127,0,1.36,1.36,0,0,0,.01,1.58,1.378,1.378,0,0,0,1.416,2.909Z" transform="translate(2.943)"/>
        <path id="パス_16" data-name="パス 16" class="cls-1" d="M3.9,0A3.479,3.479,0,0,0,1.269,1.51,3.873,3.873,0,0,0,0,4.254,3.075,3.075,0,0,0,1.381,7.212c.67.389,1.017-.17,2.516-.284,1.5.114,1.837.67,2.516.284A3.075,3.075,0,0,0,7.793,4.254,3.866,3.866,0,0,0,6.522,1.51,3.471,3.471,0,0,0,3.9,0Z" transform="translate(2.202 3.734)"/>
        <path id="パス_17" data-name="パス 17" class="cls-1" d="M1.461.02A1.3,1.3,0,0,0,.029,1.193,1.365,1.365,0,0,0,.942,2.844,1.3,1.3,0,0,0,2.375,1.669,1.361,1.361,0,0,0,1.461.02Z" transform="translate(9.795 3.03)"/>
        <path id="パス_18" data-name="パス 18" class="cls-1" d="M1.122,2.891A1.372,1.372,0,0,0,2.539,1.568,1.359,1.359,0,0,0,1.422,0,1.384,1.384,0,0,0,.007,1.327,1.359,1.359,0,0,0,1.122,2.891Z" transform="translate(6.715 0.019)"/>
      </g>
    </g>
    <g id="レイヤー_2-2" data-name="レイヤー 2" transform="translate(692.597 719.47) rotate(180)">
      <g id="レイヤー_1-2" data-name="レイヤー 1" transform="translate(0 0)">
        <path id="パス_14-2" data-name="パス 14" class="cls-1" d="M2.375,1.2A1.294,1.294,0,0,0,.942.023,1.365,1.365,0,0,0,.029,1.669,1.305,1.305,0,0,0,1.461,2.844,1.362,1.362,0,0,0,2.375,1.2Z" transform="translate(0 3.027)"/>
        <path id="パス_15-2" data-name="パス 15" class="cls-1" d="M1.416,2.909A1.357,1.357,0,0,0,2.533,1.345,1.4,1.4,0,0,0,1.127,0,1.36,1.36,0,0,0,.01,1.58,1.378,1.378,0,0,0,1.416,2.909Z" transform="translate(2.943)"/>
        <path id="パス_16-2" data-name="パス 16" class="cls-1" d="M3.9,0A3.479,3.479,0,0,0,1.269,1.51,3.873,3.873,0,0,0,0,4.254,3.075,3.075,0,0,0,1.381,7.212c.67.389,1.017-.17,2.516-.284,1.5.114,1.837.67,2.516.284A3.075,3.075,0,0,0,7.793,4.254,3.866,3.866,0,0,0,6.522,1.51,3.471,3.471,0,0,0,3.9,0Z" transform="translate(2.202 3.734)"/>
        <path id="パス_17-2" data-name="パス 17" class="cls-1" d="M1.461.02A1.3,1.3,0,0,0,.029,1.193,1.365,1.365,0,0,0,.942,2.844,1.3,1.3,0,0,0,2.375,1.669,1.361,1.361,0,0,0,1.461.02Z" transform="translate(9.795 3.03)"/>
        <path id="パス_18-2" data-name="パス 18" class="cls-1" d="M1.122,2.891A1.372,1.372,0,0,0,2.539,1.568,1.359,1.359,0,0,0,1.422,0,1.384,1.384,0,0,0,.007,1.327,1.359,1.359,0,0,0,1.122,2.891Z" transform="translate(6.715 0.019)"/>
      </g>
    </g>
    <g id="レイヤー_2-3" data-name="レイヤー 2" transform="translate(676.376 736.359) rotate(180)">
      <g id="レイヤー_1-3" data-name="レイヤー 1" transform="translate(0 0)">
        <path id="パス_14-3" data-name="パス 14" class="cls-1" d="M2.375,1.2A1.294,1.294,0,0,0,.942.023,1.365,1.365,0,0,0,.029,1.669,1.305,1.305,0,0,0,1.461,2.844,1.362,1.362,0,0,0,2.375,1.2Z" transform="translate(0 3.027)"/>
        <path id="パス_15-3" data-name="パス 15" class="cls-1" d="M1.416,2.909A1.357,1.357,0,0,0,2.533,1.345,1.4,1.4,0,0,0,1.127,0,1.36,1.36,0,0,0,.01,1.58,1.378,1.378,0,0,0,1.416,2.909Z" transform="translate(2.943)"/>
        <path id="パス_16-3" data-name="パス 16" class="cls-1" d="M3.9,0A3.479,3.479,0,0,0,1.269,1.51,3.873,3.873,0,0,0,0,4.254,3.075,3.075,0,0,0,1.381,7.212c.67.389,1.017-.17,2.516-.284,1.5.114,1.837.67,2.516.284A3.075,3.075,0,0,0,7.793,4.254,3.866,3.866,0,0,0,6.522,1.51,3.471,3.471,0,0,0,3.9,0Z" transform="translate(2.202 3.734)"/>
        <path id="パス_17-3" data-name="パス 17" class="cls-1" d="M1.461.02A1.3,1.3,0,0,0,.029,1.193,1.365,1.365,0,0,0,.942,2.844,1.3,1.3,0,0,0,2.375,1.669,1.361,1.361,0,0,0,1.461.02Z" transform="translate(9.795 3.03)"/>
        <path id="パス_18-3" data-name="パス 18" class="cls-1" d="M1.122,2.891A1.372,1.372,0,0,0,2.539,1.568,1.359,1.359,0,0,0,1.422,0,1.384,1.384,0,0,0,.007,1.327,1.359,1.359,0,0,0,1.122,2.891Z" transform="translate(6.715 0.019)"/>
      </g>
    </g>
  </g>
</svg>
