<svg xmlns="http://www.w3.org/2000/svg" width="38.822" height="38.822" viewBox="0 0 38.822 38.822">
  <defs>
    <style>
      .cls-1 {
        fill: #e4b89b;
      }
    </style>
  </defs>
  <path id="tell" class="cls-1" d="M33.134,5.683a19.411,19.411,0,1,0,5.687,13.724A19.411,19.411,0,0,0,33.134,5.683ZM29.4,27.039l0,0v-.006l-.984.977a5.176,5.176,0,0,1-4.885,1.4,17.2,17.2,0,0,1-5-2.239,23.08,23.08,0,0,1-3.94-3.177,23.256,23.256,0,0,1-2.944-3.572,18.115,18.115,0,0,1-2.213-4.478,5.176,5.176,0,0,1,1.294-5.286l1.152-1.152a.822.822,0,0,1,1.162,0l0,0,3.636,3.636a.822.822,0,0,1,0,1.162l0,0-2.135,2.135a1.74,1.74,0,0,0-.181,2.265,24.972,24.972,0,0,0,2.556,2.983,24.819,24.819,0,0,0,3.365,2.828,1.753,1.753,0,0,0,2.239-.194l2.064-2.1a.822.822,0,0,1,1.162,0l0,0,3.643,3.649A.822.822,0,0,1,29.4,27.039Z" transform="translate(0 0)"/>
</svg>
