<svg xmlns="http://www.w3.org/2000/svg" width="237.446" height="75.222" viewBox="0 0 237.446 75.222">
  <defs>
    <style>
      .cls-1 {
        fill: #483838;
      }
    </style>
  </defs>
  <g id="グループ_116" data-name="グループ 116" transform="translate(-25.261 -114)">
    <g id="グループ_115" data-name="グループ 115">
      <path id="パス_1" data-name="パス 1" class="cls-1" d="M175.152,44.36c0-3.5-.106-4.925-.212-6.113A26.26,26.26,0,0,1,181.573,37c.9,0,1.114.3,1.114,3.858V69.276c0,2.9.106,6.108.212,7.827a60.532,60.532,0,0,1-7,.478c-.531,0-.743-.18-.743-.775Z" transform="translate(-56.908 93.338)"/>
      <path id="パス_2" data-name="パス 2" class="cls-1" d="M210.275,97.6a64.127,64.127,0,0,0,6.421-10.38,14.861,14.861,0,0,1-1.114-2.377c-1.114-3.258-5.784-17.024-7.642-21.227a17.478,17.478,0,0,1,6.368-1.778c1.114,0,1.433.892,1.8,1.958,1.38,4.155,3.237,10.5,4.458,15.066a112.3,112.3,0,0,0,4.139-17.024,25.971,25.971,0,0,1,4.458.711c1.539.419,1.7,1.189,1.38,2.733a108.889,108.889,0,0,1-6.846,21.71c-2.993,6.771-6.952,13.67-8.172,13.67a7.513,7.513,0,0,1-5.254-2.653Z" transform="translate(-72.396 81.68)"/>
      <path id="パス_3" data-name="パス 3" class="cls-1" d="M270.2,50.162c0-3.975-.053-6.405-.159-7.53,1.061-.18,5.466-.478,6.687-.478,1.061,0,1.221.653,1.221,3.264V60.483c3.715-5.158,9.393-13.463,12.524-18.574a26.788,26.788,0,0,1,4.511.356c2.335.419,2.282,1.369,1.221,3.089-1.91,3.025-6.846,9.786-10.3,14.594a194.962,194.962,0,0,0,12.312,18.744v.3c-.425.356-3.237.892-6.315.892-1.91,0-2.919-.478-4.617-2.908-2.441-3.619-8.65-13.7-9.34-15.363V71.994c0,4.15.106,6.108.159,7.3a44.569,44.569,0,0,1-6.633.472c-.9,0-1.274-.175-1.274-1.183Z" transform="translate(-101.541 91.034)"/>
      <path id="パス_4" data-name="パス 4" class="cls-1" d="M341.8,50.162c0-3.975-.053-6.405-.159-7.53,1.061-.18,5.466-.478,6.687-.478,1.061,0,1.221.653,1.221,3.264V60.483c3.715-5.158,9.393-13.463,12.524-18.574a26.788,26.788,0,0,1,4.511.356c2.335.419,2.282,1.369,1.221,3.089-1.91,3.025-6.846,9.786-10.3,14.594a194.959,194.959,0,0,0,12.312,18.744v.3c-.425.356-3.237.892-6.315.892-1.91,0-2.919-.478-4.617-2.908-2.441-3.619-8.65-13.7-9.34-15.363V71.994c0,4.15.106,6.108.159,7.3a44.57,44.57,0,0,1-6.633.472c-.9,0-1.274-.175-1.274-1.183Z" transform="translate(-135.144 91.034)"/>
      <path id="パス_5" data-name="パス 5" class="cls-1" d="M427.73,81.991c0,3.142-2.282,6.05-3.449,6.586a16.6,16.6,0,0,1-4.723.886c-7.96,0-12.418-4.564-12.418-13.644,0-6.941,4.3-14,11.622-14,7.111,0,9.818,5.753,9.818,10.614a9.763,9.763,0,0,1-.106,2.017c-.212.892-2.123,1.841-4.511,2.611-1.274.414-7,.414-9.393.3.478,4.447,3.768,5.837,6.793,5.837a15.225,15.225,0,0,0,6.209-1.428Zm-13.108-9.372a47.134,47.134,0,0,0,6.421,0c.265,0,.531-.531.531-1.247,0-2.431-.955-4.569-3.29-4.569C416.618,66.8,414.729,68.586,414.623,72.619Z" transform="translate(-165.885 81.689)"/>
    </g>
    <g id="グループ_114" data-name="グループ 114">
      <path id="パス_6" data-name="パス 6" class="cls-1" d="M62.864,66.915l-.233.3.154-.186-.143.2.233-.3a8.691,8.691,0,0,1,4-2.7c2.213-.531,5.222.255,7.52-.8,3.232-1.481,3.635-3.455,3.014-4.548-.971-1.725-2.945-2.452-6.039-.7a21.546,21.546,0,0,0-5.508,4.951l-.573.727.568-.727a21.678,21.678,0,0,0,3.481-6.522c.966-3.418-.207-5.163-2.123-5.7-1.21-.34-3.035.531-3.715,4.012-.478,2.478,1.014,5.211,1.014,7.488A8.723,8.723,0,0,1,62.864,66.915Z" transform="translate(-4.198 90.118)"/>
      <path id="パス_7" data-name="パス 7" class="cls-1" d="M77.366,55.791l-.106.138.064-.064-.053.074.111-.138a7.881,7.881,0,0,1,.738-.722,4.712,4.712,0,0,1,2.123-.727c1.226-.117,2.468-.1,3.587-1.194a1.909,1.909,0,0,0,.1-2.717A2.123,2.123,0,0,0,81.2,50.9a2.123,2.123,0,0,0-.2-2.76,1.928,1.928,0,0,0-2.616.738c-.8,1.353-.488,2.553-.308,3.768a4.654,4.654,0,0,1-.2,2.255A7.679,7.679,0,0,1,77.366,55.791Z" transform="translate(-11.064 91.51)"/>
      <path id="パス_8" data-name="パス 8" class="cls-1" d="M65.492,67.994c-1.422.1-3.481,0-4.776.122a7.063,7.063,0,0,0-3.423,1.21,11.834,11.834,0,0,0-1.7,1.592,12.258,12.258,0,0,0,1.136-2.038,6.989,6.989,0,0,0,.366-3.609c-.207-1.316-.775-3.3-1.014-4.649-.409-2.34,0-4.893-1.274-4.739-1.958.228-4.283,3.306-4.712,7.785-.34,3.55,2.123,7.52,3.184,9.021.239.334-.17,1.21-.233,1.385v.032h0V74.07c.154-.1.971-.653,1.353-.5,1.7.658,6.145,2.123,9.515.955,4.245-1.481,6.687-4.463,6.448-6.421C70.242,66.821,67.859,67.846,65.492,67.994Z" transform="translate(1.701 87.755)"/>
      <path id="パス_9" data-name="パス 9" class="cls-1" d="M72.941,24.5a10.937,10.937,0,0,0-18.308-3.571h0a10.974,10.974,0,0,0-2.17,11.245.567.567,0,0,0,.058.175c.685,1.634,2.165,1.194,2.34.032.186-1.247-.318-2.5-.313-4.086a8.289,8.289,0,0,1,8.661-8.114A8.167,8.167,0,0,1,70.8,27.772c.292,4.718-4,8.2-8.109,8.639-3.439.366-8.841-2.176-9.25,1.873a.069.069,0,0,1,0,.032A15.74,15.74,0,1,1,45.3,23.851a2.362,2.362,0,0,0,2.653-.2,2.749,2.749,0,0,0,.621-.748,2.123,2.123,0,0,0,.371-1.428,2.988,2.988,0,0,0-1.523-2.584,54.092,54.092,0,0,0-8.056-3.375.44.44,0,0,1-.228-.674v-.027a.44.44,0,0,1,.531-.159c1.412.5,7.191,2.574,8.57,3.524,1.183.817,1.332,2.351,1.03,4.07l3.577-.09a.271.271,0,0,0,.17-.44l-1.178-3.582a1.13,1.13,0,0,1,.085-.907h0a9.414,9.414,0,0,0,1.152-1.438,9.6,9.6,0,0,0,.663-1.73,1.014,1.014,0,0,1,.531-.456h0a.87.87,0,0,1,.234-.048l3.8-.738a.287.287,0,0,0,.228-.165,9.791,9.791,0,0,0-.738-1.592c-.472-.886-.971-2.123-.971-2.123a3.333,3.333,0,0,1-2.563,1.55,3.094,3.094,0,0,1-1.592-.419,37.46,37.46,0,0,0-8.2-3.646A.44.44,0,0,1,44.21,5.8a.446.446,0,0,1,.531-.223,38,38,0,0,1,8.491,3.715,2.807,2.807,0,0,0,2.712.085h0A2.961,2.961,0,0,0,57,8.318a3.184,3.184,0,0,0,.2-.43.648.648,0,0,1,.058-.18,2.882,2.882,0,0,0,.074-1.438,1.879,1.879,0,0,0-.929-1.263A37.609,37.609,0,1,0,72.973,24.514Zm-26.29-.833a.451.451,0,0,1-.616.069.462.462,0,0,1-.244-.578.521.521,0,0,1,.86.509Zm.838-3.487a.44.44,0,0,1,.616-.069.451.451,0,0,1,.244.6.44.44,0,0,1-.616.069.446.446,0,0,1-.244-.6Zm-.08,1.268a.44.44,0,0,1,.616-.069.451.451,0,0,1,.244.573.44.44,0,0,1-.616.069.451.451,0,0,1-.244-.557Zm0,.982a.462.462,0,0,1,.249.578.446.446,0,0,1-.616.069.462.462,0,0,1-.249-.578.451.451,0,0,1,.626-.053Zm-2.775-1.942a1.279,1.279,0,0,1,1.7-.621,1.321,1.321,0,0,1,.313,1.81,1.279,1.279,0,0,1-1.714.626,1.321,1.321,0,0,1-.3-1.815ZM54.961,9.161a.44.44,0,0,1-.616.069.451.451,0,0,1-.244-.573.44.44,0,0,1,.616-.069.446.446,0,0,1,.233.573Zm.817-3.471a.446.446,0,0,1,.616-.069.462.462,0,0,1,.244.578.521.521,0,0,1-.86-.509Zm-.037,1.226a.451.451,0,0,1,.616-.069.462.462,0,0,1,.244.578.446.446,0,0,1-.616.069A.456.456,0,0,1,55.742,6.917Zm0,.987a.451.451,0,0,1,.244.578.451.451,0,0,1-.616.069.462.462,0,0,1-.244-.578.451.451,0,0,1,.653-.085ZM52.913,6a1.279,1.279,0,0,1,1.7-.626,1.321,1.321,0,0,1,.313,1.81,1.284,1.284,0,0,1-1.7.626,1.316,1.316,0,0,1-.3-1.826Zm6.549,40.713c-2.685,1.2-8.592,5.519-10.21,6.633s-7.8,5.933-8.013,6.633h0c.945,2.017-.35,4.6-2.829,6.533-2.76,2.155-6.628,1.815-7.557.621s-.324-5.02,2.436-7.175c2.478-1.937,5.307-2.568,7.021-1.167h0c.531.106,6.9-4.866,8.348-6.172s7.122-6.013,8.9-8.332,3.911-1.847,4.277-1.38S62.147,45.534,59.462,46.717Z" transform="translate(25.138 113.962)"/>
    </g>
  </g>
</svg>
