<svg xmlns="http://www.w3.org/2000/svg" width="79.171" height="79.109" viewBox="0 0 79.171 79.109">
  <defs>
    <style>
      .cls-1 {
        fill: #775b5b;
      }
    </style>
  </defs>
  <g id="twitterIcon" transform="translate(-787.973 -1718.352)">
    <path id="パス_22" data-name="パス 22" class="cls-1" d="M59.269.2H19.84A19.882,19.882,0,0,0,0,20.04V59.531A19.869,19.869,0,0,0,19.84,79.309H59.331a19.882,19.882,0,0,0,19.84-19.84V20.04A19.977,19.977,0,0,0,59.269.2Zm-.063,29.634v1.318c0,13.185-10.171,28.379-28.818,28.379A28.9,28.9,0,0,1,14.88,55.074c.816.063,1.57.126,2.386.126A20.223,20.223,0,0,0,29.823,50.93a10.116,10.116,0,0,1-9.48-6.906,9.583,9.583,0,0,0,1.884.188,9.353,9.353,0,0,0,2.7-.377,10.034,10.034,0,0,1-7.974-9.794v-.126a9.711,9.711,0,0,0,4.52,1.256,9.846,9.846,0,0,1-3.139-13.31A29.006,29.006,0,0,0,39.178,32.283a9.244,9.244,0,0,1-.251-2.26A10.035,10.035,0,0,1,49.035,20.04a10.289,10.289,0,0,1,7.409,3.139,18.848,18.848,0,0,0,6.4-2.449,10.221,10.221,0,0,1-4.458,5.525,20.059,20.059,0,0,0,5.839-1.57A20.616,20.616,0,0,1,59.206,29.834Z" transform="translate(787.973 1718.152)"/>
  </g>
</svg>
