<svg xmlns="http://www.w3.org/2000/svg" width="79.109" height="79.109" viewBox="0 0 79.109 79.109">
  <defs>
    <style>
      .cls-1 {
        fill: #806868;
      }
    </style>
  </defs>
  <g id="youtubeIcon" transform="translate(-644.864 -1717.636)">
    <path id="パス_23" data-name="パス 23" class="cls-1" d="M216.7,197.9v15.759l14.519-7.817Z" transform="translate(462.178 1550.799)"/>
    <path id="パス_24" data-name="パス 24" class="cls-1" d="M59.269,0H19.777A19.869,19.869,0,0,0,0,19.84V59.331A19.856,19.856,0,0,0,19.777,79.109H59.269a19.882,19.882,0,0,0,19.84-19.84V19.84A19.882,19.882,0,0,0,59.269,0Zm6.985,41.673c0,4.52-.408,9.1-.408,9.1s-.487,3.83-2.056,5.541a7.478,7.478,0,0,1-5.337,2.4c-7.534.549-18.835.612-18.835.612s-14.032-.2-18.349-.612c-1.162-.2-3.908-.141-5.965-2.4-1.648-1.711-2.056-5.541-2.056-5.541s-.408-4.583-.408-9.1V37.435c0-4.52.408-9.1.408-9.1s.487-3.83,2.056-5.541a7.622,7.622,0,0,1,5.337-2.464c7.6-.549,18.9-.612,18.9-.612s11.3.063,18.835.612a7.908,7.908,0,0,1,5.415,2.4c1.648,1.711,2.056,5.619,2.056,5.619s.408,4.583.408,9.1Z" transform="translate(644.864 1717.636)"/>
  </g>
</svg>
